<svg xmlns="http://www.w3.org/2000/svg" preserveAspectRatio="xMidYMid meet" viewBox="0 0 100 100"><style>.A{animation:svg-28-c-background-anim 3s cubic-bezier(.5, 0, .5, 1) alternate infinite}@keyframes svg-28-c-background-anim{0%{transform:rotate(90deg)}100%{transform:rotate(-90deg)}}</style><defs><clipPath id="A"><rect height="10" rx=".5" width="10" x="9" y="9"/></clipPath><clipPath id="B"><rect height="10" rx=".5" width="10" x="9" y="21"/></clipPath><clipPath id="C"><rect height="10" rx=".5" width="10" x="9" y="33"/></clipPath><clipPath id="D"><rect height="10" rx=".5" width="10" x="9" y="45"/></clipPath><clipPath id="E"><rect height="10" rx=".5" width="10" x="9" y="57"/></clipPath><clipPath id="F"><rect height="10" rx=".5" width="10" x="9" y="69"/></clipPath><clipPath id="G"><rect height="10" rx=".5" width="10" x="9" y="81"/></clipPath><clipPath id="H"><rect height="10" rx=".5" width="10" x="21" y="9"/></clipPath><clipPath id="I"><rect height="10" rx=".5" width="10" x="21" y="21"/></clipPath><clipPath id="J"><rect height="10" rx=".5" width="10" x="21" y="33"/></clipPath><clipPath id="K"><rect height="10" rx=".5" width="10" x="21" y="45"/></clipPath><clipPath id="L"><rect height="10" rx=".5" width="10" x="21" y="57"/></clipPath><clipPath id="M"><rect height="10" rx=".5" width="10" x="21" y="69"/></clipPath><clipPath id="N"><rect height="10" rx=".5" width="10" x="21" y="81"/></clipPath><clipPath id="O"><rect height="10" rx=".5" width="10" x="33" y="9"/></clipPath><clipPath id="P"><rect height="10" rx=".5" width="10" x="33" y="21"/></clipPath><clipPath id="Q"><rect height="10" rx=".5" width="10" x="33" y="33"/></clipPath><clipPath id="R"><rect height="10" rx=".5" width="10" x="33" y="45"/></clipPath><clipPath id="S"><rect height="10" rx=".5" width="10" x="33" y="57"/></clipPath><clipPath id="T"><rect height="10" rx=".5" width="10" x="33" y="69"/></clipPath><clipPath id="U"><rect height="10" rx=".5" width="10" x="33" y="81"/></clipPath><clipPath id="V"><rect height="10" rx=".5" width="10" x="45" y="9"/></clipPath><clipPath id="W"><rect height="10" rx=".5" width="10" x="45" y="21"/></clipPath><clipPath id="X"><rect height="10" rx=".5" width="10" x="45" y="33"/></clipPath><clipPath id="Y"><rect height="10" rx=".5" width="10" x="45" y="45"/></clipPath><clipPath id="Z"><rect height="10" rx=".5" width="10" x="45" y="57"/></clipPath><clipPath id="a"><rect height="10" rx=".5" width="10" x="45" y="69"/></clipPath><clipPath id="b"><rect height="10" rx=".5" width="10" x="45" y="81"/></clipPath><clipPath id="c"><rect height="10" rx=".5" width="10" x="57" y="9"/></clipPath><clipPath id="d"><rect height="10" rx=".5" width="10" x="57" y="21"/></clipPath><clipPath id="e"><rect height="10" rx=".5" width="10" x="57" y="33"/></clipPath><clipPath id="f"><rect height="10" rx=".5" width="10" x="57" y="45"/></clipPath><clipPath id="g"><rect height="10" rx=".5" width="10" x="57" y="57"/></clipPath><clipPath id="h"><rect height="10" rx=".5" width="10" x="57" y="69"/></clipPath><clipPath id="i"><rect height="10" rx=".5" width="10" x="57" y="81"/></clipPath><clipPath id="j"><rect height="10" rx=".5" width="10" x="69" y="9"/></clipPath><clipPath id="k"><rect height="10" rx=".5" width="10" x="69" y="21"/></clipPath><clipPath id="l"><rect height="10" rx=".5" width="10" x="69" y="33"/></clipPath><clipPath id="m"><rect height="10" rx=".5" width="10" x="69" y="45"/></clipPath><clipPath id="n"><rect height="10" rx=".5" width="10" x="69" y="57"/></clipPath><clipPath id="o"><rect height="10" rx=".5" width="10" x="69" y="69"/></clipPath><clipPath id="p"><rect height="10" rx=".5" width="10" x="69" y="81"/></clipPath><clipPath id="q"><rect height="10" rx=".5" width="10" x="81" y="9"/></clipPath><clipPath id="r"><rect height="10" rx=".5" width="10" x="81" y="21"/></clipPath><clipPath id="s"><rect height="10" rx=".5" width="10" x="81" y="33"/></clipPath><clipPath id="t"><rect height="10" rx=".5" width="10" x="81" y="45"/></clipPath><clipPath id="u"><rect height="10" rx=".5" width="10" x="81" y="57"/></clipPath><clipPath id="v"><rect height="10" rx=".5" width="10" x="81" y="69"/></clipPath><clipPath id="w"><rect height="10" rx=".5" width="10" x="81" y="81"/></clipPath></defs><g clip-path="url(#A)" class="A"><path d="M4 14.625h20v20H4z"/></g><g clip-path="url(#B)" class="A"><path d="M4 26.625h20v20H4z"/></g><g clip-path="url(#C)" class="A"><path d="M4 38.625h20v20H4z"/></g><g clip-path="url(#D)" class="A"><path d="M4 50.625h20v20H4z"/></g><g clip-path="url(#E)" class="A"><path d="M4 62.625h20v20H4z"/></g><g clip-path="url(#F)" class="A"><path d="M4 74.625h20v20H4z"/></g><g clip-path="url(#G)" class="A"><path d="M4 86.625h20v20H4z"/></g><g clip-path="url(#H)" class="A"><path d="M16 14.625h20v20H16z"/></g><g clip-path="url(#I)" class="A"><path d="M16 26.625h20v20H16z"/></g><g clip-path="url(#J)" class="A"><path d="M16 38.625h20v20H16z"/></g><g clip-path="url(#K)" class="A"><path d="M16 50.625h20v20H16z"/></g><g clip-path="url(#L)" class="A"><path d="M16 62.625h20v20H16z"/></g><g clip-path="url(#M)" class="A"><path d="M16 74.625h20v20H16z"/></g><g clip-path="url(#N)" class="A"><path d="M16 86.625h20v20H16z"/></g><g clip-path="url(#O)" class="A"><path d="M28 14.625h20v20H28z"/></g><g clip-path="url(#P)" class="A"><path d="M28 26.625h20v20H28z"/></g><g clip-path="url(#Q)" class="A"><path d="M28 38.625h20v20H28z"/></g><g clip-path="url(#R)" class="A"><path d="M28 50.625h20v20H28z"/></g><g clip-path="url(#S)" class="A"><path d="M28 62.625h20v20H28z"/></g><g clip-path="url(#T)" class="A"><path d="M28 74.625h20v20H28z"/></g><g clip-path="url(#U)" class="A"><path d="M28 86.625h20v20H28z"/></g><g clip-path="url(#V)" class="A"><path d="M40 14.625h20v20H40z"/></g><g clip-path="url(#W)" class="A"><path d="M40 26.625h20v20H40z"/></g><g clip-path="url(#X)" class="A"><path d="M40 38.625h20v20H40z"/></g><g clip-path="url(#Y)" class="A"><path d="M40 50.625h20v20H40z"/></g><g clip-path="url(#Z)" class="A"><path d="M40 62.625h20v20H40z"/></g><g clip-path="url(#a)" class="A"><path d="M40 74.625h20v20H40z"/></g><g clip-path="url(#b)" class="A"><path d="M40 86.625h20v20H40z"/></g><g clip-path="url(#c)" class="A"><path d="M52 14.625h20v20H52z"/></g><g clip-path="url(#d)" class="A"><path d="M52 26.625h20v20H52z"/></g><g clip-path="url(#e)" class="A"><path d="M52 38.625h20v20H52z"/></g><g clip-path="url(#f)" class="A"><path d="M52 50.625h20v20H52z"/></g><g clip-path="url(#g)" class="A"><path d="M52 62.625h20v20H52z"/></g><g clip-path="url(#h)" class="A"><path d="M52 74.625h20v20H52z"/></g><g clip-path="url(#i)" class="A"><path d="M52 86.625h20v20H52z"/></g><g clip-path="url(#j)" class="A"><path d="M64 14.625h20v20H64z"/></g><g clip-path="url(#k)" class="A"><path d="M64 26.625h20v20H64z"/></g><g clip-path="url(#l)" class="A"><path d="M64 38.625h20v20H64z"/></g><g clip-path="url(#m)" class="A"><path d="M64 50.625h20v20H64z"/></g><g clip-path="url(#n)" class="A"><path d="M64 62.625h20v20H64z"/></g><g clip-path="url(#o)" class="A"><path d="M64 74.625h20v20H64z"/></g><g clip-path="url(#p)" class="A"><path d="M64 86.625h20v20H64z"/></g><g clip-path="url(#q)" class="A"><path d="M76 14.625h20v20H76z"/></g><g clip-path="url(#r)" class="A"><path d="M76 26.625h20v20H76z"/></g><g clip-path="url(#s)" class="A"><path d="M76 38.625h20v20H76z"/></g><g clip-path="url(#t)" class="A"><path d="M76 50.625h20v20H76z"/></g><g clip-path="url(#u)" class="A"><path d="M76 62.625h20v20H76z"/></g><g clip-path="url(#v)" class="A"><path d="M76 74.625h20v20H76z"/></g><g clip-path="url(#w)" class="A"><path d="M76 86.625h20v20H76z"/></g></svg>